# xmcd CD database file
#
# Track frame offsets:
#	150
#	13633
#	28801
#	42728
#	58515
#
# Disc length: 986 seconds
#
# Revision: 1
# Processed by: cddbd v1.5.2PL0 Copyright (c) Steve Scherf et al.
# Submitted via: CDex 1.82
#
DISCID=3e03d805
DTITLE=Anna Scionti - EP
DYEAR=2017
DGENRE=Blues
TTITLE0=Long-Legged Woman
TTITLE1=Pretty Girl
TTITLE2=She Don't Like Whiskey
TTITLE3=Clarksdale
TTITLE4=All Gen Wants
EXTD=YEAR: 2017
EXTT0=
EXTT1=
EXTT2=
EXTT3=
EXTT4=
PLAYORDER=
